<?xml version="1.0" encoding="UTF-8" standalone="no"?>
<!-- Generator: Adobe Illustrator 16.0.0, SVG Export Plug-In . SVG Version: 6.00 Build 0)  -->

<svg
   xmlns:dc="http://purl.org/dc/elements/1.1/"
   xmlns:cc="http://creativecommons.org/ns#"
   xmlns:rdf="http://www.w3.org/1999/02/22-rdf-syntax-ns#"
   xmlns:svg="http://www.w3.org/2000/svg"
   xmlns="http://www.w3.org/2000/svg"
   xmlns:sodipodi="http://sodipodi.sourceforge.net/DTD/sodipodi-0.dtd"
   xmlns:inkscape="http://www.inkscape.org/namespaces/inkscape"
   version="1.1"
   id="Capa_1"
   x="0px"
   y="0px"
   width="48"
   height="24"
   viewBox="0 0 47.999999 24"
   xml:space="preserve"
   inkscape:version="0.91 r13725"
   sodipodi:docname="facebook-circle-icon.svg"><metadata
     id="metadata4258"><rdf:RDF><cc:Work
         rdf:about=""><dc:format>image/svg+xml</dc:format><dc:type
           rdf:resource="http://purl.org/dc/dcmitype/StillImage" /><dc:title></dc:title></cc:Work></rdf:RDF></metadata><defs
     id="defs4256" /><sodipodi:namedview
     pagecolor="#ffffff"
     bordercolor="#666666"
     borderopacity="1"
     objecttolerance="10"
     gridtolerance="10"
     guidetolerance="10"
     inkscape:pageopacity="0"
     inkscape:pageshadow="2"
     inkscape:window-width="1301"
     inkscape:window-height="744"
     id="namedview4254"
     showgrid="false"
     inkscape:zoom="12.4375"
     inkscape:cx="22.65782"
     inkscape:cy="12.218119"
     inkscape:window-x="65"
     inkscape:window-y="24"
     inkscape:window-maximized="1"
     inkscape:current-layer="Capa_1"
     fit-margin-top="0"
     fit-margin-left="0"
     fit-margin-right="0"
     fit-margin-bottom="0" /><g
     id="g4224"
     transform="translate(0.16359733,-8.11834)" /><g
     id="g4226"
     transform="translate(0.16359733,-8.11834)" /><g
     id="g4228"
     transform="translate(0.16359733,-8.11834)" /><g
     id="g4230"
     transform="translate(0.16359733,-8.11834)" /><g
     id="g4232"
     transform="translate(0.16359733,-8.11834)" /><g
     id="g4234"
     transform="translate(0.16359733,-8.11834)" /><g
     id="g4236"
     transform="translate(0.16359733,-8.11834)" /><g
     id="g4238"
     transform="translate(0.16359733,-8.11834)" /><g
     id="g4240"
     transform="translate(0.16359733,-8.11834)" /><g
     id="g4242"
     transform="translate(0.16359733,-8.11834)" /><g
     id="g4244"
     transform="translate(0.16359733,-8.11834)" /><g
     id="g4246"
     transform="translate(0.16359733,-8.11834)" /><g
     id="g4248"
     transform="translate(0.16359733,-8.11834)" /><g
     id="g4250"
     transform="translate(0.16359733,-8.11834)" /><g
     id="g4252"
     transform="translate(0.16359733,-8.11834)" /><g
     id="g9612"
     inkscape:export-filename="/home/matheusfaria/Documents/headsortails/headsortailsgames.github.io/assets/img/icons/facebook-circle-standard.png"
     inkscape:export-xdpi="90"
     inkscape:export-ydpi="90"
     transform="scale(0.75,0.75)"><path
       d="M 32,15.999999 C 32,7.163277 39.163635,0 48.000146,0 56.836657,0 64,7.163277 64,15.999999 64,24.836431 56.836657,32 48.000146,32 39.163635,32 32,24.836431 32,15.999999"
       style="fill:#314a7e;fill-opacity:1;fill-rule:nonzero;stroke:none"
       id="path3830-1"
       inkscape:connector-curvature="0" /><path
       d="m 52.054676,16.006127 -2.651567,0 0,9.456788 -3.93139,0 0,-9.456788 -1.869549,0 0,-3.340762 1.869549,0 0,-2.161618 c 0,-1.5456385 0.734163,-3.966662 3.966115,-3.966662 l 2.91185,0.012547 0,3.2424266 -2.112616,0 c -0.346657,0 -0.833959,0.1733263 -0.833959,0.9106924 l 0,1.966115 2.99472,0 -0.343153,3.337261"
       style="fill:#ffffff;fill-opacity:1;fill-rule:nonzero;stroke:none"
       id="path3832-2"
       inkscape:connector-curvature="0" /></g><g
     id="g9608"
     transform="matrix(0.75,0,0,0.75,1.5,0)"
     inkscape:export-filename="/home/matheusfaria/Documents/headsortails/headsortailsgames.github.io/assets/img/icons/facebook-circle-black.png"
     inkscape:export-xdpi="90"
     inkscape:export-ydpi="90"><path
       inkscape:connector-curvature="0"
       id="path9604"
       style="fill:#000000;fill-opacity:1;fill-rule:nonzero;stroke:none"
       d="M -2,15.999999 C -2,7.163277 5.163635,0 14.000146,0 22.836657,0 30,7.163277 30,15.999999 30,24.836431 22.836657,32 14.000146,32 5.163635,32 -2,24.836431 -2,15.999999" /><path
       inkscape:connector-curvature="0"
       id="path9606"
       style="fill:#ffffff;fill-opacity:1;fill-rule:nonzero;stroke:none"
       d="m 18.054676,16.006127 -2.651567,0 0,9.456788 -3.93139,0 0,-9.456788 -1.869549,0 0,-3.340762 1.869549,0 0,-2.161618 c 0,-1.5456385 0.734163,-3.966662 3.966115,-3.966662 l 2.91185,0.012547 0,3.2424266 -2.112616,0 c -0.346657,0 -0.833959,0.1733263 -0.833959,0.9106924 l 0,1.966115 2.99472,0 -0.343153,3.337261" /></g></svg>